<svg id="Layer_1" data-name="Layer 1" xmlns="http://www.w3.org/2000/svg" viewBox="0 0 1124.99 500.99"><path d="M1106,175c-46.06-2.67-136.34-20.06-247,17-75.33,25.23-103.12,56.6-166,54-72.61-3-88.91-47.05-170-85-147.21-68.9-220.2,17-355-43C56.38,68.35,47.44,21.47,0,9V1114H1V201c47.4,12.29,56.33,58.53,167.85,107.51,134.68,59.15,207.6-25.55,354.68,42.42,81,37.44,97.3,80.88,169.85,83.85,62.82,2.57,90.59-28.38,165.85-53.27C969.79,345,1060,362.12,1106,364.75c6.26.36,12.59.48,19,.41V175.42Q1115.4,175.53,1106,175Z" transform="translate(0 -9.01)" fill="#ff5666"/><path d="M1106,228c-46.06-2.67-136.34-20.06-247,17-75.33,25.23-103.12,56.6-166,54-72.61-3-88.91-47.05-170-85-147.21-68.9-220.2,17-355-43C56.38,121.35,47.44,74.47,0,62V1114H1V201c47.4,12.29,56.33,58.53,167.85,107.51,134.68,59.15,207.6-25.55,354.68,42.42,81,37.44,97.3,80.88,169.85,83.85,62.82,2.57,90.59-28.38,165.85-53.27C969.79,345,1060,362.12,1106,364.75c6.26.36,12.59.48,19,.41V228.42Q1115.4,228.53,1106,228Z" transform="translate(0 -9.01)" fill="#f29559"/><path d="M1106,295.75c-46.06-2.63-136.34-19.79-247,16.77-75.33,24.88-103.12,55.83-166,53.27-72.61-3-88.91-46.41-170-83.85-147.21-68-220.2,16.73-355-42.42C56.38,190.54,47.44,144.3,0,132v972H1V201c47.4,12.29,56.33,58.53,167.85,107.51,134.68,59.15,207.6-25.55,354.68,42.42,81,37.44,97.3,80.88,169.85,83.85,62.82,2.57,90.59-28.38,165.85-53.27C969.79,345,1060,362.12,1106,364.75c6.26.36,12.59.48,19,.41v-69Q1115.4,296.27,1106,295.75Z" transform="translate(0 -9.01)" fill="#078bff"/></svg>