<svg xmlns="http://www.w3.org/2000/svg" width="1125" height="1163.99" viewBox="0 0 1125 1163.99"><g id="Layer_2" data-name="Layer 2"><g id="Layer_1-2" data-name="Layer 1"><path d="M1125,166.41q-9.6.1-19-.42c-46.06-2.67-136.34-20.06-247,17-75.33,25.23-103.12,56.6-166,54-72.61-3-88.91-47.05-170-85-147.21-68.9-220.2,17-355-43C56.38,59.34,47.44,12.46,0,0V1105H1125Z" fill="#ff5666"/><path d="M1125,219.41q-9.6.1-19-.42c-46.06-2.67-136.34-20.06-247,17-75.33,25.23-103.12,56.6-166,54-72.61-3-88.91-47.05-170-85-147.21-68.9-220.2,17-355-43C56.38,112.34,47.44,65.46,0,53V1105H1125Z" fill="#f29559"/><path d="M1106,286.74c-46.06-2.63-136.34-19.79-247,16.77-75.33,24.88-103.12,55.83-166,53.26-72.61-3-88.91-46.41-170-83.84-147.21-68-220.2,16.73-355-42.42C56.38,181.53,47.44,135.29,0,123v972H1125V287.15C1118.6,287.22,1112.26,287.1,1106,286.74Z" fill="#078bff"/><path d="M1106,355.74c-46-2.63-136.22-19.79-246.78,16.77-75.27,24.88-103,55.83-165.86,53.26-72.54-3-88.83-46.41-169.84-83.84-147.09-68-220,16.73-354.69-42.42C57.33,250.53,48.4,204.29,1,192v972H1125V356.15C1118.6,356.22,1112.27,356.1,1106,355.74Z" fill="#fff"/></g></g></svg>